<?xml version="1.0" encoding="utf-8"?>
<?xml-stylesheet type="text/xsl" href="rss1.xsl"?>
<rss version="2.0" xmlns:atom="http://www.w3.org/2005/Atom" xmlns:content="http://purl.org/rss/1.0/modules/content/" xmlns:dc="http://purl.org/dc/elements/1.1/" xmlns:media="http://search.yahoo.com/mrss/">
<channel>
 <title>Getty</title>
 <link>http://www.gettyimg.com/</link>
 <atom:link href="http://www.gettyimg.com/" rel="self" type="application/rss+xml" />

 
                <item>
                <title><![CDATA[【Requests】[REQ VID] - Paramore Live from The Eras Tour (YouTube Livestream)]]></title>
                <link><![CDATA[https://sharemania.us/threads/paramore-live-from-the-eras-tour-youtube-livestream.251252/]]></link>
                <description><![CDATA[<article>
<blockquote class="messageText SelectQuoteContainer ugc baseHtml">
Taylor Nation was live for about 30 minutes on YouTube, they streamed Paramore's set from today's show. <br>
Does anyone have a recording of that please? Thank you.
<div class="messageTextEndMarker">&nbsp;</div>
</blockquote>
</article>]]></description>
                <author><![CDATA[yonatand12301]]></author>
                </item>

                
                <item>
                <title><![CDATA[【HD Live Performances】WEB-DL - Paramore - Hard Touch, Burning Down the House, Still Into You (Eras Tour Munich Night 2) 1080p WEB-DL Taylor Nation live stream]]></title>
                <link><![CDATA[https://sharemania.us/threads/paramore-hard-touch-burning-down-the-house-still-into-you-eras-tour-munich-night-2-1080p-web-dl-taylor-nation-live-stream.251250/]]></link>
                <description><![CDATA[<article>
<blockquote class="messageText SelectQuoteContainer ugc baseHtml">
pretty sure this was the link, if it helps.<br>
<a href="https://www.youtube.com/live/RCH1-V5hqPo" target="_blank" class="externalLink" rel="nofollow">https://www.youtube.com/live/RCH1-V5hqPo</a>
<div class="messageTextEndMarker">&nbsp;</div>
</blockquote>
</article>]]></description>
                <author><![CDATA[AsyrafGrande]]></author>
                </item>

                
                <item>
                <title><![CDATA[【Requests】[REQ VID] - Train]]></title>
                <link><![CDATA[https://sharemania.us/threads/train.251251/]]></link>
                <description><![CDATA[<article>
<blockquote class="messageText SelectQuoteContainer ugc baseHtml">
General<br>
Complete name : Paramore - Hard Touch, Burning Down the House, Still Into You (Eras Tour Munich Night 2) 1080p WEB-DL.mp4<br>
Format : MPEG-4<br>
Format profile : Base Media<br>
File size : 400 MiB<br>
Duration : 15 min 13 s<br>
Overall bit rate mode : Variable<br>
Overall bit rate : 3 679 kb/s<br>
Frame rate : 29.970 FPS<br>
Writing application : Lavf61.0.100<br>
<br>
Video<br>
ID : 1<br>
Format : AVC<br>
Format/Info : Advanced Video Codec<br>
Format profile : Main<br>
Format level : 4<br>
Format settings, CABAC : Yes<br>
Format settings, Referenc : 1 frame<br>
Codec ID : avc1<br>
Duration : 15 min 13 s<br>
Bit rate : 3 625 kb/s<br>
Width : 1 920 pixels<br>
Height : 1 080 pixels<br>
Display aspect ratio : 16:9<br>
Frame rate mode : Variable<br>
Frame rate : 29.970 FPS<br>
Minimum frame rate : 29.412 FPS<br>
Maximum frame rate : 30.303 FPS<br>
Color space : YUV<br>
Chroma subsampling : 4:2:0<br>
Bit depth : 8 bits<br>
Scan type : Progressive<br>
Bits/(Pixel*Frame) : 0.058<br>
Stream size : 395 MiB (99%)<br>
Color range : Limited<br>
Color primaries : BT.709<br>
Transfer characteristics : BT.709<br>
Matrix coefficients : BT.709<br>
Codec configuration box : avcC<br>
<br>
Audio<br>
ID : 2<br>
Format : AAC LC SBR<br>
Format/Info : Advanced Audio Codec<br>
Commercial name : HE-AAC<br>
Codec ID : mp4a-40-2<br>
Duration : 15 min 13 s<br>
Bit rate mode : Variable<br>
Bit rate : 48.0 kb/s<br>
Maximum bit rate : 51.0 kb/s<br>
Channel(s) : 2 channels<br>
Channel layout : L R<br>
Sampling rate : 44.1 kHz<br>
Frame rate : 21.533 FPS (2048 SPF)<br>
Compression mode : Lossy<br>
Stream size : 5.23 MiB (1%)<br>
Default : Yes<br>
Alternate group : 1<br>
<br>
<div class="bbCodeBlock bbCodeVfcHH HiddenContent">
<div class="attribution type">Hidden Content:</div>
<blockquote>You must reply before you can see the hidden data contained here.</blockquote>
</div>
<div class="messageTextEndMarker">&nbsp;</div>
</blockquote>
</article>]]></description>
                <author><![CDATA[musicmp3]]></author>
                </item>

                </channel></rss>